<?xml version="1.0" encoding="utf-8"?>
<!-- Generator: Adobe Illustrator 16.0.0, SVG Export Plug-In . SVG Version: 6.00 Build 0)  -->
<!DOCTYPE svg PUBLIC "-//W3C//DTD SVG 1.1//EN" "http://www.w3.org/Graphics/SVG/1.1/DTD/svg11.dtd">
<svg version="1.1" id="Layer_1" xmlns="http://www.w3.org/2000/svg" xmlns:xlink="http://www.w3.org/1999/xlink" x="0px" y="0px"
	 width="16px" height="16px" viewBox="0 0 16 16" enable-background="new 0 0 16 16" xml:space="preserve">
<path opacity="0.5" fill="#FFFFFF" enable-background="new    " d="M-4.667,2.688"/>
<g>
	<rect fill="#2E6F5D" width="16" height="16"/>
	<path fill="#FFFFFF" d="M14.797,21.3h-0.162c-0.529,0-0.959-0.43-0.959-0.959L13.658,6.485c0-0.11-0.068-0.202-0.17-0.234
		l-4.396,2.53C8.757,8.956,8.379,9.047,7.999,9.047c-0.471,0-0.926-0.136-1.316-0.396l-4.172-2.4C2.411,6.283,2.34,6.375,2.34,6.485
		L2.323,20.341c0,0.135,0.11,0.246,0.246,0.246h0.406c0.136,0,0.246-0.111,0.246-0.246V9.346c0-0.529,0.43-0.96,0.958-0.96h0.096
		l2.847,1.626c0.517,0.323,1.215,0.328,1.74,0.01l2.863-1.634h0.094c0.529,0,0.959,0.43,0.959,0.958v11.598h-0.713V9.346
		c0-0.11-0.072-0.203-0.172-0.235l-2.668,1.525C8.862,10.856,8.437,10.977,8,10.977c-0.444,0-0.875-0.124-1.251-0.357L4.106,9.11
		c-0.099,0.032-0.17,0.125-0.17,0.235v10.995c0,0.529-0.431,0.959-0.96,0.959H2.569c-0.528,0-0.959-0.43-0.959-0.959L1.626,6.485
		c0-0.53,0.431-0.959,0.959-0.959h0.096l4.389,2.527C7.344,8.235,7.666,8.333,8,8.333c0.267,0,0.522-0.062,0.757-0.182l4.563-2.626
		h0.094c0.529,0,0.961,0.431,0.961,0.96l0.016,13.854c0,0.136,0.109,0.246,0.244,0.246h0.162c0.137,0,0.246-0.11,0.246-0.246V3.696
		c0-0.108-0.072-0.202-0.17-0.233L9.199,6.75C8.838,6.958,8.429,7.068,8.01,7.068c-0.441,0-0.869-0.12-1.243-0.349l-5.64-3.256
		c-0.098,0.032-0.17,0.124-0.17,0.234v16.645c0,0.529-0.43,0.959-0.96,0.959h-0.406c-0.529,0-0.959-0.43-0.959-0.959V1.426
		c0-0.449,0.016-0.785,0.231-1.034C-0.9,0.116-0.512,0.06-0.003,0.06h0.096l6.932,4.001c0.285,0.205,0.62,0.313,0.971,0.313
		c0.324,0,0.637-0.092,0.905-0.268l0.017-0.01l6.988-4.036h0.098c0.752,0,1.365,0.613,1.365,1.367v19.519h-0.715V1.427
		c0-0.331-0.246-0.605-0.566-0.647l-6.805,3.93C8.901,4.957,8.457,5.088,7.997,5.088c-0.496,0-0.971-0.152-1.373-0.438l-6.72-3.875
		c-0.402,0.008-0.484,0.065-0.5,0.084c-0.058,0.067-0.058,0.393-0.058,0.568v18.916c0,0.135,0.11,0.245,0.245,0.245h0.407
		c0.134,0,0.245-0.11,0.245-0.245V3.697c0-0.529,0.43-0.959,0.96-0.959h0.096l5.835,3.369c0.27,0.165,0.569,0.249,0.878,0.249
		c0.292,0,0.58-0.077,0.831-0.222l5.861-3.396h0.096c0.529,0,0.959,0.43,0.959,0.959v16.646C15.756,20.87,15.326,21.3,14.797,21.3z"
		/>
</g>
</svg>
