<?xml version="1.0" encoding="utf-8"?>
<!-- Generator: Adobe Illustrator 16.0.0, SVG Export Plug-In . SVG Version: 6.00 Build 0)  -->
<!DOCTYPE svg PUBLIC "-//W3C//DTD SVG 1.1//EN" "http://www.w3.org/Graphics/SVG/1.1/DTD/svg11.dtd">
<svg version="1.1" id="Layer_1" xmlns="http://www.w3.org/2000/svg" xmlns:xlink="http://www.w3.org/1999/xlink" x="0px" y="0px"
	 width="122px" height="70px" viewBox="0 0 122 70" enable-background="new 0 0 122 70" xml:space="preserve">
<g>
	<path fill="#FFFFFF" d="M7.294,57.964H6.687c-0.79,0-1.432-0.643-1.432-1.432l0.025-24.403c0-0.789,0.642-1.431,1.433-1.431h15.266
		c0.202,0,0.367-0.165,0.367-0.367v-0.535c0-0.201-0.165-0.366-0.367-0.366H4.646c-0.202,0-0.367,0.165-0.367,0.366v26.735
		c0,0.789-0.642,1.432-1.432,1.432H2.24c-0.789,0-1.432-0.643-1.432-1.432V28.291c0-1.125,0.915-2.039,2.039-2.039H22.87v1.065
		H2.847c-0.537,0-0.973,0.438-0.973,0.974v28.241c0,0.201,0.164,0.365,0.366,0.365h0.607c0.202,0,0.367-0.164,0.367-0.365V29.797
		c0-0.789,0.642-1.432,1.432-1.432h17.332c0.79,0,1.432,0.643,1.432,1.432v0.535c0,0.79-0.643,1.432-1.432,1.432H6.712
		c-0.203,0-0.367,0.165-0.367,0.366L6.32,56.532c0,0.201,0.164,0.365,0.366,0.365h0.608c0.201,0,0.366-0.164,0.366-0.365V46.521
		c0-0.791,0.643-1.432,1.433-1.432h8.438c0.202,0,0.366-0.165,0.366-0.365v-0.609c0-0.202-0.164-0.366-0.366-0.366H9.093
		c-0.79,0-1.433-0.643-1.433-1.433v-0.247c0-0.79,0.643-1.432,1.433-1.432l8.439,0.005c0.202,0,0.366-0.163,0.366-0.366v-0.607
		c0-0.201-0.164-0.367-0.366-0.367H9.093c-0.79,0-1.433-0.642-1.433-1.432v-3.626c0-0.79,0.643-1.432,1.433-1.432H22.87v1.066H9.093
		c-0.202,0-0.367,0.165-0.367,0.366v3.626c0,0.203,0.165,0.366,0.367,0.366h8.438c0.79,0,1.432,0.644,1.432,1.433v0.607
		c0,0.79-0.642,1.432-1.432,1.432l-8.439-0.005c-0.202,0-0.367,0.164-0.367,0.366v0.247c0,0.203,0.165,0.366,0.367,0.366h8.438
		c0.79,0,1.432,0.644,1.432,1.433v0.609c0,0.788-0.642,1.432-1.432,1.432H9.093c-0.202,0-0.367,0.161-0.367,0.365v10.011
		C8.726,57.321,8.084,57.964,7.294,57.964z"/>
	<path fill="#FFFFFF" d="M33.973,57.964h-0.607c-0.79,0-1.432-0.643-1.432-1.432l0.024-24.403c0-0.789,0.643-1.431,1.432-1.431
		h15.267c0.202,0,0.366-0.165,0.366-0.367v-0.535c0-0.201-0.165-0.366-0.366-0.366H31.325c-0.202,0-0.366,0.165-0.366,0.366v26.735
		c0,0.789-0.643,1.432-1.432,1.432h-0.608c-0.79,0-1.432-0.643-1.432-1.432V28.291c0-1.125,0.915-2.039,2.04-2.039h20.022v1.065
		H29.527c-0.537,0-0.974,0.438-0.974,0.974v28.241c0,0.201,0.165,0.365,0.366,0.365h0.608c0.202,0,0.366-0.164,0.366-0.365V29.797
		c0-0.789,0.643-1.432,1.432-1.432h17.333c0.79,0,1.432,0.643,1.432,1.432v0.535c0,0.79-0.642,1.432-1.432,1.432H33.39
		c-0.202,0-0.367,0.165-0.367,0.366l-0.024,24.403c0,0.201,0.165,0.365,0.367,0.365h0.607c0.202,0,0.366-0.164,0.366-0.365V46.521
		c0-0.791,0.642-1.432,1.432-1.432h8.439c0.202,0,0.367-0.165,0.367-0.365v-0.609c0-0.202-0.165-0.366-0.367-0.366h-8.439
		c-0.79,0-1.432-0.643-1.432-1.433v-0.247c0-0.79,0.642-1.432,1.432-1.432l8.439,0.005c0.201,0,0.366-0.163,0.366-0.366v-0.607
		c0-0.201-0.165-0.367-0.367-0.367h-8.439c-0.79,0-1.432-0.642-1.432-1.432v-3.626c0-0.79,0.642-1.432,1.432-1.432h13.778v1.066
		H35.771c-0.203,0-0.367,0.165-0.367,0.366v3.626c0,0.203,0.164,0.366,0.367,0.366h8.439c0.79,0,1.432,0.644,1.432,1.433v0.607
		c0,0.79-0.643,1.432-1.432,1.432l-8.439-0.005c-0.202,0-0.366,0.164-0.366,0.366v0.247c0,0.203,0.164,0.366,0.367,0.366h8.439
		c0.79,0,1.432,0.644,1.432,1.433v0.609c0,0.788-0.643,1.432-1.432,1.432h-8.439c-0.203,0-0.367,0.161-0.367,0.365v10.011
		C35.405,57.321,34.763,57.964,33.973,57.964z"/>
	<path opacity="0.5" fill="#FFFFFF" d="M48.444,30.266"/>
	<path fill="#FFFFFF" d="M76.816,58.051h-0.242c-0.791,0-1.432-0.642-1.432-1.432l-0.025-20.685c0-0.164-0.104-0.302-0.254-0.35
		l-6.562,3.778c-0.5,0.26-1.064,0.396-1.632,0.396c-0.704,0-1.384-0.204-1.966-0.591l-6.229-3.583
		c-0.147,0.048-0.254,0.186-0.254,0.35l-0.024,20.685c0,0.202,0.163,0.367,0.366,0.367h0.607c0.203,0,0.366-0.165,0.366-0.367
		V40.204c0-0.789,0.642-1.432,1.432-1.432h0.143l4.249,2.426c0.773,0.484,1.816,0.491,2.598,0.016l4.272-2.441h0.14
		c0.791,0,1.432,0.643,1.432,1.432V57.52h-1.064V40.204c0-0.164-0.107-0.303-0.256-0.35l-3.982,2.277
		c-0.541,0.329-1.177,0.508-1.828,0.508c-0.663,0-1.308-0.185-1.868-0.533l-3.946-2.252c-0.148,0.047-0.254,0.186-0.254,0.35v16.415
		c0,0.79-0.643,1.432-1.433,1.432h-0.607c-0.79,0-1.433-0.642-1.433-1.432l0.025-20.686c0-0.79,0.643-1.432,1.432-1.432h0.143
		l6.553,3.772c0.409,0.274,0.889,0.421,1.387,0.421c0.398,0,0.779-0.092,1.132-0.272l6.809-3.92h0.142
		c0.789,0,1.432,0.642,1.432,1.433l0.025,20.685c0,0.202,0.163,0.367,0.365,0.367h0.242c0.202,0,0.367-0.165,0.367-0.367v-24.85
		c0-0.163-0.107-0.301-0.254-0.348l-8.469,4.908c-0.538,0.311-1.151,0.475-1.776,0.475c-0.657,0-1.297-0.18-1.855-0.522l-8.42-4.86
		c-0.147,0.047-0.254,0.185-0.254,0.348v24.85c0,0.79-0.643,1.432-1.433,1.432h-0.607c-0.79,0-1.432-0.642-1.432-1.432v-28.24
		c0-0.67,0.024-1.172,0.345-1.544c0.354-0.412,0.934-0.496,1.694-0.496h0.143l10.35,5.973c0.424,0.306,0.925,0.467,1.449,0.467
		c0.483,0,0.95-0.137,1.351-0.399l0.025-0.015l10.431-6.025h0.146c1.122,0,2.039,0.915,2.039,2.04v29.14h-1.066v-29.14
		c0-0.494-0.369-0.903-0.846-0.966l-10.158,5.867c-0.572,0.369-1.236,0.564-1.921,0.564c-0.74,0-1.448-0.226-2.049-0.653
		l-10.033-5.786c-0.6,0.012-0.723,0.097-0.747,0.125c-0.086,0.101-0.086,0.587-0.086,0.849v28.24c0,0.202,0.165,0.367,0.366,0.367
		h0.607c0.202,0,0.366-0.165,0.366-0.367v-24.85c0-0.79,0.643-1.432,1.433-1.432h0.143l8.712,5.029
		c0.401,0.246,0.849,0.372,1.309,0.372c0.437,0,0.866-0.115,1.241-0.331l8.748-5.07h0.143c0.79,0,1.432,0.642,1.432,1.432v24.85
		C78.248,57.409,77.606,58.051,76.816,58.051z"/>
</g>
<g>
	<path fill="#FFFFFF" d="M103.736,4.045l0.045-0.793c0.345-1.362,1.653-2.376,3.212-2.376C109.713,0.87,110.131,3,110.131,3
		l0.117,0.476c0,0.31-0.27,0.562-0.601,0.563l-0.357-0.001c-0.332,0.001-0.602-0.251-0.599-0.562l-0.24-0.401
		c-0.332-0.462-0.896-0.765-1.533-0.765c-1.021,0-1.849,0.778-1.849,1.735"/>
	<path fill="#FFFFFF" d="M110.248,4.591l-0.046,0.792c-0.348,1.364-1.653,2.377-3.212,2.377c-2.721,0.006-3.138-2.124-3.138-2.124
		l-0.116-0.475c0-0.312,0.269-0.564,0.599-0.563l0.357,0c0.331,0,0.601,0.253,0.601,0.563l0.237,0.4
		c0.333,0.462,0.896,0.765,1.532,0.766c1.023,0,1.852-0.777,1.852-1.736"/>
	<path fill="#FFFFFF" d="M95.232,27.788l-5.195,10.899c-0.271,0.568,0.053,1.62,0.436,1.802l5.628-11.804
		c0.101-0.218,0.186-0.395,0.451-0.267l0.364,0.173c0.287,0.138,0.18,0.303,0.078,0.521l-5.627,11.803
		c-0.104,0.218,1.182,0.236,1.487-0.407l5.35-11.219"/>
	<path fill="#FFFFFF" d="M100.816,30.418l-12.319,25.84c-0.27,0.569,0.055,1.619,0.437,1.803l12.747-26.746
		c0.104-0.218,0.188-0.395,0.455-0.268l0.364,0.173c0.287,0.138,0.179,0.303,0.077,0.521L89.828,58.486
		c-0.104,0.218,1.181,0.236,1.487-0.407l12.491-26.205"/>
	<g>
		<path fill="#FFFFFF" d="M104.494,55.809l0.261-0.667c0.391-1.581-0.371-3.274-1.899-4.003c-1.5-0.716-3.377-0.33-4.372,0.914
			l-0.158,0.331c-0.104,0.219-0.012,0.479,0.206,0.582l0.233,0.112c0.218,0.103,0.479,0.012,0.581-0.207l0.146-0.127
			c0.681-0.845,1.879-1.146,2.9-0.656c0.959,0.457,1.477,1.465,1.352,2.465l-0.082,0.369c-0.104,0.218-0.364,0.312-0.58,0.207
			l-0.235-0.112c-0.219-0.102-0.312-0.363-0.207-0.581l-0.023-0.354c-0.063-0.428-0.332-0.815-0.752-1.016
			c-0.67-0.319-1.471-0.035-1.791,0.636"/>
		<path fill="#FFFFFF" d="M97.876,53.325l-0.262,0.666c-0.387,1.582,0.372,3.275,1.902,4.004c1.5,0.715,3.375,0.33,4.37-0.914
			l0.16-0.332c0.102-0.217,0.011-0.479-0.207-0.582l-0.232-0.111c-0.22-0.104-0.479-0.012-0.583,0.206l-0.145,0.129
			c-0.684,0.844-1.878,1.145-2.902,0.656c-0.958-0.458-1.477-1.468-1.35-2.467l0.081-0.371c0.104-0.216,0.363-0.308,0.582-0.204
			l0.235,0.111c0.216,0.104,0.308,0.363,0.204,0.582l0.022,0.355c0.064,0.426,0.333,0.813,0.751,1.014
			c0.673,0.319,1.475,0.035,1.792-0.636"/>
	</g>
	<path fill="#FFFFFF" d="M102.034,12.997l-5.277,10.906c-0.1,0.213-0.009,0.468,0.203,0.569l0.325,0.153
		c0.213,0.101,0.466,0.01,0.566-0.203c0,0,5.331-11.174,5.415-11.355c0.094-0.245,1.093-0.182,0.994,0
		c-0.112,0.234-5.589,11.75-5.589,11.75c-0.1,0.212-0.01,0.467,0.203,0.568l0.325,0.153c0.213,0.101,0.465,0.01,0.568-0.203
		c0,0,5.739-12.084,5.837-12.268c0.098-0.184,1.01-0.211,1.056,0c-0.119,0.247-6.075,12.661-6.075,12.661
		c-0.1,0.213-0.009,0.468,0.203,0.569l0.326,0.153c0.212,0.102,0.465,0.01,0.568-0.203c0,0,6.149-13.024,6.205-13.135
		c0.06-0.112,1.028,0.175,0.938,0.365c-0.09,0.189-6.323,13.165-6.323,13.165c-0.102,0.213-0.012,0.467,0.203,0.568l0.323,0.153
		c0.213,0.101,0.469,0.01,0.568-0.202c0,0,6.249-13.08,6.298-13.188c0.094-0.17,0.935,0.226,0.852,0.397
		c-0.081,0.171-6.329,13.184-6.329,13.184c-0.103,0.214-0.012,0.469,0.203,0.569l0.323,0.153c0.213,0.102,0.468,0.011,0.568-0.202
		c0,0,6.075-12.795,6.149-12.951c0.085-0.184,0.303-0.263,0.488-0.177l4.625,2.158c0.369,0.171,0.528,0.608,0.356,0.977
		l-3.839,8.232c-0.268,0.573,0.068,1.62,0.45,1.799l5.526-11.852c0.103-0.218,0.185-0.395,0.451-0.271l0.365,0.17
		c0.29,0.135,0.182,0.302,0.082,0.52l-5.526,11.851c-0.104,0.218,1.183,0.227,1.484-0.42l4.865-10.433
		c0.524-1.125,0.036-2.462-1.088-2.986L109.432,9.81c-0.32-0.148-0.656-0.216-0.985-0.21L80.85,9.579
		c-0.629,0-1.438,0.744-1.438,1.167l28.79,0.021c0.33-0.005,0.665,0.062,0.983,0.21l8.958,4.167c0.214,0.1,0.308,0.354,0.206,0.566
		l-0.15,0.327c-0.099,0.214-0.353,0.306-0.567,0.207l-9.002-4.203c-0.317-0.148-0.652-0.217-0.982-0.211l-28.238-0.021
		c-0.24,0,0.296,1.168,1.009,1.168L102.034,12.997z"/>
</g>
<path fill="#FFFFFF" d="M6.077,62.578H1.672c-0.183,0-0.332,0.147-0.332,0.33v6.215c0,0.108,0.088,0.196,0.198,0.196h0.134
	c0.11,0,0.198-0.088,0.198-0.196V63.24c0-0.109,0.088-0.197,0.198-0.197h3.633c0.11,0,0.198,0.088,0.198,0.197v0.118
	c0,0.11-0.088,0.198-0.198,0.198h-3.18c-0.108,0-0.197,0.088-0.197,0.198l-0.005,5.368c0,0.108,0.089,0.196,0.197,0.196H2.65
	c0.109,0,0.198-0.088,0.198-0.196V66.92c0-0.11,0.088-0.197,0.199-0.197h1.856c0.11,0,0.198-0.09,0.198-0.198v-0.133
	c0-0.11-0.088-0.199-0.198-0.199H3.047c-0.11,0-0.199-0.088-0.199-0.196v-0.057c0-0.107,0.088-0.197,0.199-0.197l1.856,0.002
	c0.11,0,0.198-0.09,0.198-0.199v-0.133c0-0.109-0.088-0.197-0.198-0.197H3.047c-0.11,0-0.199-0.089-0.199-0.198v-0.527v-0.27
	c0-0.11,0.088-0.199,0.199-0.199h3.03"/>
<path fill="#FFFFFF" d="M43.093,62.578h-4.405c-0.183,0-0.332,0.147-0.332,0.33v6.215c0,0.108,0.088,0.196,0.198,0.196h0.134
	c0.109,0,0.198-0.088,0.198-0.196V63.24c0-0.109,0.088-0.197,0.198-0.197h3.634c0.109,0,0.197,0.088,0.197,0.197v0.118
	c0,0.11-0.088,0.198-0.197,0.198h-3.18c-0.109,0-0.198,0.088-0.198,0.198l-0.005,5.368c0,0.108,0.089,0.196,0.197,0.196h0.133
	c0.11,0,0.198-0.088,0.198-0.196V66.92c0-0.11,0.088-0.197,0.199-0.197h1.856c0.109,0,0.198-0.09,0.198-0.198v-0.133
	c0-0.11-0.088-0.199-0.198-0.199h-1.856c-0.11,0-0.199-0.088-0.199-0.196v-0.057c0-0.107,0.088-0.197,0.199-0.197l1.856,0.002
	c0.109,0,0.198-0.09,0.198-0.199v-0.133c0-0.109-0.088-0.197-0.198-0.197h-1.856c-0.11,0-0.199-0.089-0.199-0.198v-0.527v-0.27
	c0-0.11,0.088-0.199,0.199-0.199h3.03"/>
<g>
	<path fill="#FFFFFF" d="M9.706,67.977H6.574l-0.373,1.038c-0.084,0.23-0.222,0.345-0.41,0.345c-0.103,0-0.177-0.031-0.223-0.094
		C5.523,69.2,5.5,69.126,5.5,69.042c0-0.031,0.004-0.061,0.009-0.092c0.007-0.03,0.016-0.061,0.028-0.091l2.057-5.826
		c0.104-0.271,0.279-0.411,0.528-0.411c0.254,0,0.431,0.14,0.528,0.411l2.129,5.826c0.025,0.055,0.037,0.119,0.037,0.191
		c0,0.092-0.025,0.165-0.077,0.223c-0.051,0.058-0.129,0.086-0.232,0.086c-0.164,0-0.273-0.072-0.328-0.217L9.706,67.977z
		 M6.767,67.284H9.46l-1.329-3.731L6.767,67.284z"/>
	<path fill="#FFFFFF" d="M11.736,63.007c0-0.269,0.109-0.401,0.327-0.401c0.17,0,0.328,0.109,0.474,0.328l3.55,5.225v-5.197
		c0-0.23,0.109-0.346,0.328-0.346c0.224,0,0.337,0.115,0.337,0.346v5.999c0,0.266-0.11,0.399-0.328,0.399
		c-0.176,0-0.328-0.091-0.455-0.271L12.4,63.881v5.134c0,0.23-0.108,0.345-0.327,0.345c-0.224,0-0.336-0.114-0.336-0.345V63.007z"/>
	<path fill="#FFFFFF" d="M19.4,63.279h-1.338c-0.243,0-0.364-0.108-0.364-0.329c0-0.224,0.121-0.335,0.364-0.335h3.35
		c0.23,0,0.346,0.111,0.346,0.335c0,0.221-0.115,0.329-0.346,0.329h-1.347v5.699c0,0.254-0.109,0.381-0.324,0.381
		c-0.228,0-0.341-0.127-0.341-0.381V63.279z"/>
	<path fill="#FFFFFF" d="M25.799,67.977h-3.131l-0.373,1.038c-0.085,0.23-0.222,0.345-0.41,0.345c-0.103,0-0.177-0.031-0.223-0.094
		c-0.046-0.065-0.068-0.14-0.068-0.224c0-0.031,0.003-0.061,0.009-0.092c0.006-0.03,0.015-0.061,0.027-0.091l2.057-5.826
		c0.104-0.271,0.279-0.411,0.529-0.411c0.254,0,0.43,0.14,0.527,0.411l2.13,5.826c0.024,0.055,0.036,0.119,0.036,0.191
		c0,0.092-0.026,0.165-0.078,0.223c-0.051,0.058-0.129,0.086-0.232,0.086c-0.164,0-0.273-0.072-0.328-0.217L25.799,67.977z
		 M22.859,67.284h2.694l-1.329-3.731L22.859,67.284z"/>
	<path fill="#FFFFFF" d="M30.669,63.497c-0.146-0.091-0.337-0.166-0.573-0.227c-0.237-0.062-0.474-0.091-0.71-0.091
		c-0.152,0-0.297,0.028-0.438,0.086c-0.139,0.059-0.262,0.139-0.368,0.241c-0.106,0.104-0.191,0.223-0.254,0.359
		c-0.064,0.137-0.097,0.287-0.097,0.45c0,0.146,0.046,0.278,0.137,0.396c0.09,0.117,0.209,0.229,0.354,0.332
		c0.146,0.105,0.312,0.205,0.496,0.305c0.186,0.101,0.375,0.203,0.569,0.305c0.207,0.11,0.41,0.224,0.61,0.342
		c0.201,0.119,0.381,0.249,0.542,0.392c0.161,0.142,0.292,0.303,0.391,0.482c0.101,0.179,0.15,0.387,0.15,0.624
		c0,0.327-0.057,0.613-0.173,0.859c-0.114,0.246-0.273,0.451-0.473,0.615c-0.201,0.163-0.436,0.288-0.705,0.373
		c-0.271,0.084-0.563,0.128-0.879,0.128c-0.577,0-1.098-0.152-1.565-0.455c-0.164-0.109-0.245-0.244-0.245-0.4
		c0-0.207,0.103-0.312,0.309-0.312c0.104,0,0.209,0.038,0.319,0.109c0.176,0.11,0.372,0.195,0.587,0.256
		c0.215,0.062,0.423,0.091,0.623,0.091c0.201,0,0.388-0.022,0.564-0.067c0.176-0.046,0.331-0.117,0.465-0.215
		c0.133-0.096,0.24-0.223,0.318-0.378c0.079-0.154,0.118-0.342,0.118-0.559c0-0.142-0.038-0.267-0.113-0.379
		c-0.077-0.112-0.178-0.219-0.306-0.318c-0.127-0.101-0.273-0.196-0.437-0.29c-0.164-0.095-0.334-0.188-0.51-0.279
		c-0.225-0.114-0.449-0.236-0.674-0.364c-0.224-0.128-0.428-0.265-0.609-0.418c-0.182-0.152-0.329-0.32-0.442-0.505
		s-0.168-0.396-0.168-0.634c0-0.296,0.053-0.561,0.159-0.796c0.106-0.232,0.252-0.43,0.438-0.592
		c0.185-0.16,0.402-0.283,0.651-0.368c0.249-0.086,0.516-0.127,0.801-0.127c0.248,0,0.503,0.035,0.764,0.104
		c0.261,0.07,0.522,0.173,0.782,0.313c0.085,0.049,0.149,0.111,0.192,0.187c0.042,0.076,0.063,0.152,0.063,0.232
		c0,0.091-0.029,0.172-0.086,0.246c-0.058,0.071-0.135,0.109-0.232,0.109c-0.054,0-0.108-0.018-0.164-0.05
		C30.796,63.578,30.735,63.541,30.669,63.497z"/>
	<path fill="#FFFFFF" d="M33.8,66.192l-1.73-3.032c-0.042-0.077-0.063-0.156-0.063-0.237c0-0.211,0.1-0.317,0.3-0.317
		c0.116,0,0.21,0.064,0.282,0.191l1.593,2.659l1.557-2.64c0.085-0.141,0.194-0.211,0.328-0.211c0.2,0,0.3,0.097,0.3,0.292
		c0,0.06-0.019,0.125-0.055,0.19l-1.83,3.104v2.776c0,0.261-0.112,0.391-0.336,0.391c-0.23,0-0.346-0.13-0.346-0.391V66.192z"/>
	<path fill="#FFFFFF" d="M46.079,62.396c0.492,0,0.921,0.102,1.288,0.306c0.368,0.203,0.674,0.471,0.919,0.8
		c0.245,0.332,0.429,0.708,0.551,1.134c0.121,0.425,0.182,0.858,0.182,1.302c0,0.438-0.061,0.866-0.182,1.287
		c-0.122,0.423-0.306,0.799-0.551,1.129c-0.246,0.332-0.552,0.597-0.919,0.798C47,69.35,46.571,69.45,46.079,69.45
		c-0.479,0-0.899-0.102-1.261-0.305c-0.36-0.203-0.663-0.471-0.905-0.805c-0.243-0.336-0.425-0.712-0.546-1.134
		c-0.122-0.421-0.183-0.854-0.183-1.298c0-0.436,0.061-0.865,0.183-1.288c0.121-0.42,0.301-0.798,0.542-1.128
		c0.24-0.331,0.542-0.596,0.906-0.796C45.178,62.495,45.6,62.396,46.079,62.396z M46.079,63.079c-0.37,0-0.691,0.08-0.964,0.24
		c-0.273,0.161-0.5,0.372-0.683,0.633s-0.318,0.559-0.41,0.895c-0.091,0.337-0.136,0.683-0.136,1.04c0,0.365,0.047,0.72,0.141,1.068
		s0.233,0.657,0.418,0.927c0.186,0.27,0.416,0.488,0.692,0.653c0.276,0.168,0.597,0.251,0.96,0.251c0.376,0,0.703-0.08,0.979-0.241
		c0.276-0.16,0.505-0.372,0.688-0.637c0.182-0.263,0.318-0.564,0.409-0.903c0.091-0.339,0.137-0.688,0.137-1.045
		c0-0.363-0.046-0.719-0.137-1.063c-0.091-0.345-0.23-0.652-0.418-0.922c-0.188-0.271-0.42-0.486-0.697-0.65
		C46.782,63.16,46.456,63.079,46.079,63.079z"/>
	<path fill="#FFFFFF" d="M52.733,62.396c0.492,0,0.921,0.102,1.289,0.306c0.367,0.203,0.674,0.471,0.919,0.8
		c0.245,0.332,0.429,0.708,0.55,1.134c0.121,0.425,0.182,0.858,0.182,1.302c0,0.438-0.061,0.866-0.182,1.287
		c-0.122,0.423-0.305,0.799-0.55,1.129c-0.246,0.332-0.553,0.597-0.919,0.798c-0.367,0.198-0.797,0.299-1.289,0.299
		c-0.479,0-0.899-0.102-1.26-0.305c-0.361-0.203-0.663-0.471-0.906-0.805c-0.243-0.336-0.425-0.712-0.546-1.134
		c-0.122-0.421-0.182-0.854-0.182-1.298c0-0.436,0.06-0.865,0.182-1.288c0.122-0.42,0.302-0.798,0.542-1.128
		c0.24-0.331,0.542-0.596,0.906-0.796C51.832,62.495,52.254,62.396,52.733,62.396z M52.733,63.079c-0.369,0-0.691,0.08-0.964,0.24
		c-0.272,0.161-0.5,0.372-0.683,0.633c-0.182,0.261-0.318,0.559-0.409,0.895c-0.091,0.337-0.137,0.683-0.137,1.04
		c0,0.365,0.047,0.72,0.142,1.068c0.094,0.349,0.233,0.657,0.419,0.927c0.185,0.27,0.416,0.488,0.691,0.653
		c0.277,0.168,0.596,0.251,0.961,0.251c0.375,0,0.702-0.08,0.978-0.241c0.277-0.16,0.505-0.372,0.688-0.637
		c0.181-0.263,0.318-0.564,0.409-0.903c0.091-0.339,0.137-0.688,0.137-1.045c0-0.363-0.045-0.719-0.137-1.063
		c-0.091-0.345-0.23-0.652-0.418-0.922c-0.188-0.271-0.42-0.486-0.696-0.65C53.436,63.16,53.11,63.079,52.733,63.079z"/>
	<path fill="#FFFFFF" d="M57.703,63.279h-1.338c-0.243,0-0.364-0.108-0.364-0.329c0-0.224,0.121-0.335,0.364-0.335h3.35
		c0.23,0,0.346,0.111,0.346,0.335c0,0.221-0.115,0.329-0.346,0.329h-1.347v5.699c0,0.254-0.108,0.381-0.323,0.381
		c-0.228,0-0.342-0.127-0.342-0.381V63.279z"/>
	<path fill="#FFFFFF" d="M61.043,63.061c0-0.291,0.125-0.438,0.374-0.438h1.757c0.195,0,0.403,0.031,0.629,0.088
		c0.224,0.059,0.433,0.15,0.628,0.277c0.193,0.128,0.356,0.294,0.486,0.498c0.131,0.201,0.196,0.449,0.196,0.739
		c0,0.166-0.025,0.324-0.078,0.475c-0.051,0.151-0.123,0.292-0.213,0.417c-0.091,0.13-0.201,0.24-0.329,0.334
		c-0.127,0.094-0.263,0.165-0.409,0.213c0.206,0.032,0.404,0.102,0.592,0.21c0.188,0.11,0.354,0.245,0.496,0.406
		c0.143,0.16,0.256,0.341,0.341,0.546c0.085,0.203,0.127,0.417,0.127,0.642c0,0.279-0.051,0.534-0.154,0.769
		s-0.245,0.434-0.423,0.602c-0.179,0.166-0.386,0.295-0.619,0.386c-0.235,0.091-0.479,0.137-0.733,0.137h-2.139
		c-0.201,0-0.334-0.024-0.4-0.072c-0.085-0.055-0.128-0.179-0.128-0.373V63.061z M62.896,65.445c0.176,0,0.353-0.02,0.529-0.06
		c0.177-0.038,0.338-0.102,0.484-0.191c0.147-0.087,0.266-0.199,0.357-0.336c0.091-0.136,0.137-0.302,0.137-0.496
		c0-0.169-0.037-0.321-0.11-0.455c-0.073-0.133-0.171-0.245-0.292-0.338c-0.122-0.091-0.259-0.158-0.411-0.207
		c-0.153-0.05-0.311-0.075-0.475-0.075h-1.406v2.158H62.896z M61.708,68.695h1.725c0.196,0,0.38-0.026,0.558-0.076
		c0.176-0.052,0.331-0.13,0.466-0.233c0.133-0.104,0.238-0.23,0.314-0.383c0.077-0.15,0.115-0.327,0.115-0.527
		c0-0.229-0.051-0.435-0.151-0.61c-0.1-0.175-0.232-0.323-0.397-0.441c-0.164-0.118-0.353-0.207-0.565-0.268
		c-0.213-0.062-0.434-0.092-0.657-0.092h-1.406V68.695z"/>
	<path fill="#FFFFFF" d="M70.292,67.977h-3.131l-0.373,1.038c-0.085,0.23-0.222,0.345-0.41,0.345c-0.104,0-0.178-0.031-0.223-0.094
		c-0.046-0.065-0.068-0.14-0.068-0.224c0-0.031,0.002-0.061,0.01-0.092c0.004-0.03,0.014-0.061,0.026-0.091l2.057-5.826
		c0.105-0.271,0.279-0.411,0.529-0.411c0.254,0,0.43,0.14,0.526,0.411l2.13,5.826c0.024,0.055,0.036,0.119,0.036,0.191
		c0,0.092-0.024,0.165-0.077,0.223c-0.052,0.058-0.129,0.086-0.231,0.086c-0.165,0-0.272-0.072-0.328-0.217L70.292,67.977z
		 M67.352,67.284h2.694l-1.33-3.731L67.352,67.284z"/>
	<path fill="#FFFFFF" d="M72.322,62.943c0-0.226,0.107-0.338,0.328-0.338c0.224,0,0.337,0.112,0.337,0.338v5.752h2.921
		c0.224,0,0.336,0.109,0.336,0.326c0,0.227-0.112,0.338-0.336,0.338h-3.142c-0.297,0-0.444-0.173-0.444-0.52V62.943z"/>
	<path fill="#FFFFFF" d="M77.11,62.943c0-0.226,0.106-0.338,0.327-0.338c0.224,0,0.338,0.112,0.338,0.338v5.752h2.922
		c0.223,0,0.335,0.109,0.335,0.326c0,0.227-0.112,0.338-0.335,0.338h-3.143c-0.297,0-0.444-0.173-0.444-0.52V62.943z"/>
	<path fill="#FFFFFF" d="M94.25,67.977h-3.133l-0.374,1.038c-0.084,0.23-0.221,0.345-0.408,0.345c-0.104,0-0.179-0.031-0.224-0.094
		c-0.045-0.065-0.068-0.14-0.068-0.224c0-0.031,0.004-0.061,0.01-0.092c0.005-0.03,0.016-0.061,0.027-0.091l2.058-5.826
		c0.103-0.271,0.278-0.411,0.526-0.411c0.256,0,0.432,0.14,0.529,0.411l2.131,5.826c0.024,0.055,0.035,0.119,0.035,0.191
		c0,0.092-0.025,0.165-0.078,0.223c-0.051,0.058-0.128,0.086-0.23,0.086c-0.166,0-0.271-0.072-0.327-0.217L94.25,67.977z
		 M91.308,67.284h2.696l-1.33-3.731L91.308,67.284z"/>
	<path fill="#FFFFFF" d="M99.118,63.497c-0.145-0.091-0.336-0.166-0.572-0.227c-0.237-0.062-0.475-0.091-0.711-0.091
		c-0.151,0-0.298,0.028-0.436,0.086c-0.141,0.059-0.264,0.139-0.37,0.241c-0.105,0.104-0.191,0.223-0.254,0.359
		c-0.064,0.137-0.097,0.287-0.097,0.45c0,0.146,0.046,0.278,0.138,0.396c0.091,0.117,0.209,0.229,0.355,0.332
		c0.144,0.105,0.311,0.205,0.495,0.305c0.185,0.101,0.374,0.203,0.568,0.305c0.207,0.11,0.409,0.224,0.611,0.342
		c0.198,0.119,0.38,0.249,0.541,0.392c0.16,0.142,0.29,0.303,0.393,0.482c0.099,0.179,0.149,0.387,0.149,0.624
		c0,0.327-0.06,0.613-0.175,0.859c-0.113,0.246-0.272,0.451-0.472,0.615c-0.2,0.163-0.435,0.288-0.706,0.373
		c-0.271,0.084-0.562,0.128-0.879,0.128c-0.576,0-1.099-0.152-1.564-0.455c-0.165-0.109-0.247-0.244-0.247-0.4
		c0-0.207,0.104-0.312,0.31-0.312c0.104,0,0.211,0.038,0.318,0.109c0.177,0.11,0.373,0.195,0.587,0.256
		c0.217,0.062,0.425,0.091,0.625,0.091c0.201,0,0.389-0.022,0.564-0.067c0.174-0.046,0.33-0.117,0.464-0.215
		c0.132-0.096,0.238-0.223,0.317-0.378c0.081-0.154,0.12-0.342,0.12-0.559c0-0.142-0.039-0.267-0.112-0.379
		c-0.078-0.112-0.179-0.219-0.309-0.318c-0.127-0.101-0.271-0.196-0.435-0.29c-0.166-0.095-0.333-0.188-0.511-0.279
		c-0.225-0.114-0.45-0.236-0.674-0.364c-0.225-0.128-0.428-0.265-0.609-0.418c-0.182-0.152-0.329-0.32-0.44-0.505
		c-0.114-0.185-0.17-0.396-0.17-0.634c0-0.296,0.054-0.561,0.16-0.796c0.105-0.232,0.251-0.43,0.438-0.592
		c0.183-0.16,0.401-0.283,0.649-0.368c0.25-0.086,0.516-0.127,0.801-0.127c0.248,0,0.504,0.035,0.765,0.104
		c0.262,0.07,0.523,0.173,0.783,0.313c0.084,0.049,0.149,0.111,0.19,0.187c0.042,0.076,0.064,0.152,0.064,0.232
		c0,0.091-0.028,0.172-0.087,0.246c-0.057,0.071-0.134,0.109-0.232,0.109c-0.054,0-0.108-0.018-0.164-0.05
		C99.245,63.578,99.185,63.541,99.118,63.497z"/>
	<path fill="#FFFFFF" d="M102.188,63.279h-1.34c-0.242,0-0.363-0.108-0.363-0.329c0-0.224,0.121-0.335,0.363-0.335h3.351
		c0.231,0,0.347,0.111,0.347,0.335c0,0.221-0.115,0.329-0.347,0.329h-1.347v5.699c0,0.254-0.108,0.381-0.324,0.381
		c-0.228,0-0.34-0.127-0.34-0.381V63.279z"/>
	<path fill="#FFFFFF" d="M105.526,63.033c0-0.271,0.124-0.411,0.374-0.411h2.767c0.225,0,0.339,0.114,0.339,0.339
		c0,0.219-0.114,0.326-0.339,0.326h-2.477v2.24h2.04c0.226,0,0.336,0.117,0.336,0.346c0,0.214-0.11,0.319-0.336,0.319h-2.04v2.503
		h2.549c0.262,0,0.393,0.113,0.393,0.337c0,0.218-0.131,0.327-0.393,0.327H105.9c-0.164,0-0.268-0.027-0.31-0.081
		c-0.042-0.056-0.064-0.164-0.064-0.328V63.033z"/>
	<path fill="#FFFFFF" d="M110.231,62.979c0-0.242,0.175-0.363,0.52-0.363h2.095c0.339,0,0.639,0.055,0.896,0.163
		c0.257,0.109,0.476,0.252,0.651,0.428c0.177,0.176,0.307,0.379,0.396,0.605c0.087,0.229,0.132,0.46,0.132,0.696
		c0,0.188-0.029,0.373-0.087,0.556c-0.059,0.183-0.144,0.351-0.259,0.505c-0.116,0.155-0.262,0.291-0.438,0.411
		c-0.176,0.118-0.383,0.21-0.62,0.275l1.275,2.494c0.056,0.11,0.083,0.217,0.083,0.319c0,0.085-0.024,0.156-0.07,0.215
		c-0.046,0.058-0.118,0.085-0.222,0.085c-0.062,0-0.119-0.011-0.175-0.036c-0.054-0.023-0.098-0.074-0.135-0.146l-1.468-2.785h-1.91
		v2.549c0,0.272-0.109,0.409-0.327,0.409c-0.224,0-0.338-0.137-0.338-0.409V62.979z M110.896,63.279v2.459h2.021
		c0.226,0,0.419-0.033,0.584-0.102c0.163-0.065,0.3-0.156,0.409-0.269c0.11-0.113,0.189-0.242,0.24-0.387
		c0.053-0.146,0.078-0.295,0.078-0.446c0-0.157-0.026-0.311-0.081-0.459c-0.056-0.149-0.137-0.282-0.247-0.4
		c-0.108-0.119-0.245-0.215-0.409-0.287c-0.165-0.072-0.354-0.109-0.574-0.109H110.896z"/>
	<path fill="#FFFFFF" d="M118.99,63.497c-0.146-0.091-0.339-0.166-0.574-0.227c-0.237-0.062-0.474-0.091-0.711-0.091
		c-0.151,0-0.298,0.028-0.438,0.086c-0.139,0.059-0.261,0.139-0.367,0.241c-0.106,0.104-0.191,0.223-0.254,0.359
		c-0.063,0.137-0.097,0.287-0.097,0.45c0,0.146,0.046,0.278,0.137,0.396c0.091,0.117,0.211,0.229,0.354,0.332
		c0.146,0.105,0.312,0.205,0.497,0.305c0.186,0.101,0.375,0.203,0.569,0.305c0.207,0.11,0.41,0.224,0.609,0.342
		c0.202,0.119,0.382,0.249,0.543,0.392c0.161,0.142,0.289,0.303,0.39,0.482c0.101,0.179,0.152,0.387,0.152,0.624
		c0,0.327-0.059,0.613-0.174,0.859c-0.117,0.246-0.273,0.451-0.475,0.615c-0.199,0.163-0.437,0.288-0.704,0.373
		c-0.272,0.084-0.563,0.128-0.88,0.128c-0.574,0-1.098-0.152-1.566-0.455c-0.162-0.109-0.245-0.244-0.245-0.4
		c0-0.207,0.104-0.312,0.311-0.312c0.104,0,0.211,0.038,0.318,0.109c0.176,0.11,0.373,0.195,0.587,0.256
		c0.216,0.062,0.424,0.091,0.625,0.091c0.198,0,0.388-0.022,0.563-0.067c0.176-0.046,0.33-0.117,0.465-0.215
		c0.132-0.096,0.239-0.223,0.318-0.378c0.077-0.154,0.117-0.342,0.117-0.559c0-0.142-0.035-0.267-0.114-0.379
		c-0.075-0.112-0.176-0.219-0.305-0.318c-0.126-0.101-0.271-0.196-0.438-0.29c-0.163-0.095-0.333-0.188-0.51-0.279
		c-0.223-0.114-0.448-0.236-0.672-0.364c-0.225-0.128-0.428-0.265-0.61-0.418c-0.181-0.152-0.329-0.32-0.443-0.505
		c-0.11-0.185-0.165-0.396-0.165-0.634c0-0.296,0.053-0.561,0.158-0.796c0.106-0.232,0.252-0.43,0.438-0.592
		c0.183-0.16,0.4-0.283,0.647-0.368c0.251-0.086,0.517-0.127,0.803-0.127c0.248,0,0.504,0.035,0.765,0.104
		c0.262,0.07,0.521,0.173,0.782,0.313c0.085,0.049,0.149,0.111,0.191,0.187c0.042,0.076,0.063,0.152,0.063,0.232
		c0,0.091-0.028,0.172-0.086,0.246c-0.058,0.071-0.135,0.109-0.233,0.109c-0.053,0-0.107-0.018-0.163-0.05
		C119.116,63.578,119.056,63.541,118.99,63.497z"/>
</g>
<path fill="#FFFFFF" d="M87.838,69.319v-3.809c0-0.109-0.088-0.198-0.198-0.198l-0.908,0.521c-0.102,0.061-0.219,0.098-0.346,0.098
	c-0.128,0-0.248-0.039-0.35-0.102l-0.903-0.517c-0.11,0-0.198,0.089-0.198,0.198v3.612c0,0.109-0.089,0.196-0.198,0.196h-0.134
	c-0.108,0-0.197-0.087-0.197-0.196l0.006-4.552c0-0.109,0.088-0.197,0.196-0.197l1.408,0.81c0.105,0.07,0.234,0.112,0.37,0.112
	c0.11,0,0.214-0.027,0.305-0.074l1.475-0.848c0.109,0,0.196,0.088,0.196,0.197l0.006,4.552c0,0.109,0.089,0.196,0.199,0.196h0.053
	c0.11,0,0.197-0.087,0.197-0.196v-5.468c0-0.108-0.087-0.198-0.197-0.198l-1.897,1.1c-0.097,0.058-0.211,0.089-0.332,0.089
	c-0.127,0-0.246-0.035-0.347-0.097l-0.428-0.248l-1.462-0.844c-0.107,0-0.197,0.09-0.197,0.198v5.468
	c0,0.109-0.089,0.196-0.196,0.196h-0.135c-0.11,0-0.199-0.087-0.199-0.196v-6.215c0-0.258,0.018-0.33,0.334-0.33l2.239,1.291
	c0.108,0.08,0.242,0.126,0.387,0.126c0.133,0,0.256-0.04,0.36-0.106l2.27-1.311c0.181,0,0.331,0.148,0.331,0.33v6.411"/>
</svg>
